<svg xmlns="http://www.w3.org/2000/svg" width="27.625" height="26" viewBox="0 0 27.625 26">
  <path id="apartment" d="M31.438,17.469a1.216,1.216,0,0,1-1.219-1.219V14.625a1.216,1.216,0,0,1,1.219-1.219h1.625a1.216,1.216,0,0,1,1.219,1.219V16.25a1.216,1.216,0,0,1-1.219,1.219Zm2.031-2.844a.407.407,0,0,0-.406-.406H31.438a.407.407,0,0,0-.406.406V16.25a.407.407,0,0,0,.406.406h1.625a.407.407,0,0,0,.406-.406Zm7.313,6.5a1.216,1.216,0,0,1-1.219,1.219H37.938a1.216,1.216,0,0,1-1.219-1.219V19.5a1.216,1.216,0,0,1,1.219-1.219h1.625A1.216,1.216,0,0,1,40.781,19.5Zm-1.219.406a.407.407,0,0,0,.406-.406V19.5a.407.407,0,0,0-.406-.406H37.938a.407.407,0,0,0-.406.406v1.625a.407.407,0,0,0,.406.406Zm-19.5-4.062a1.217,1.217,0,0,1-1.219-1.219V14.625a1.217,1.217,0,0,1,1.219-1.219h1.625a1.216,1.216,0,0,1,1.219,1.219V16.25a1.216,1.216,0,0,1-1.219,1.219Zm2.031-2.844a.407.407,0,0,0-.406-.406H20.063a.407.407,0,0,0-.406.406V16.25a.407.407,0,0,0,.406.406h1.625a.407.407,0,0,0,.406-.406Zm.813,6.5a1.216,1.216,0,0,1-1.219,1.219H20.063a1.217,1.217,0,0,1-1.219-1.219V19.5a1.217,1.217,0,0,1,1.219-1.219h1.625A1.216,1.216,0,0,1,22.906,19.5Zm-1.219.406a.407.407,0,0,0,.406-.406V19.5a.407.407,0,0,0-.406-.406H20.063a.407.407,0,0,0-.406.406v1.625a.407.407,0,0,0,.406.406Zm4.875-4.062a1.216,1.216,0,0,1-1.219-1.219V14.625a1.216,1.216,0,0,1,1.219-1.219h1.625a1.216,1.216,0,0,1,1.219,1.219V16.25a1.216,1.216,0,0,1-1.219,1.219Zm2.031-2.844a.407.407,0,0,0-.406-.406H26.563a.407.407,0,0,0-.406.406V16.25a.407.407,0,0,0,.406.406h1.625a.407.407,0,0,0,.406-.406ZM34.281,6.5a1.216,1.216,0,0,1-1.219,1.219H31.438A1.216,1.216,0,0,1,30.219,6.5V4.875a1.217,1.217,0,0,1,1.219-1.219h1.625a1.217,1.217,0,0,1,1.219,1.219ZM31.438,4.469a.407.407,0,0,0-.406.406V6.5a.407.407,0,0,0,.406.406h1.625a.407.407,0,0,0,.406-.406V4.875a.407.407,0,0,0-.406-.406Zm-3.25-.812a1.217,1.217,0,0,1,1.219,1.219V6.5a1.216,1.216,0,0,1-1.219,1.219H26.563A1.216,1.216,0,0,1,25.344,6.5V4.875a1.217,1.217,0,0,1,1.219-1.219Zm.406,1.219a.407.407,0,0,0-.406-.406H26.563a.407.407,0,0,0-.406.406V6.5a.407.407,0,0,0,.406.406h1.625a.407.407,0,0,0,.406-.406Zm5.688,6.5a1.216,1.216,0,0,1-1.219,1.219H31.438a1.216,1.216,0,0,1-1.219-1.219V9.75a1.216,1.216,0,0,1,1.219-1.219h1.625A1.216,1.216,0,0,1,34.281,9.75Zm-1.219.406a.407.407,0,0,0,.406-.406V9.75a.407.407,0,0,0-.406-.406H31.438a.407.407,0,0,0-.406.406v1.625a.407.407,0,0,0,.406.406Zm4.875,5.688a1.216,1.216,0,0,1-1.219-1.219V14.625a1.216,1.216,0,0,1,1.219-1.219h1.625a1.216,1.216,0,0,1,1.219,1.219V16.25a1.216,1.216,0,0,1-1.219,1.219Zm2.031-2.844a.407.407,0,0,0-.406-.406H37.938a.407.407,0,0,0-.406.406V16.25a.407.407,0,0,0,.406.406h1.625a.407.407,0,0,0,.406-.406Zm-17.062-3.25a1.216,1.216,0,0,1-1.219,1.219H20.063a1.217,1.217,0,0,1-1.219-1.219V9.75a1.217,1.217,0,0,1,1.219-1.219h1.625A1.216,1.216,0,0,1,22.906,9.75Zm-1.219.406a.407.407,0,0,0,.406-.406V9.75a.407.407,0,0,0-.406-.406H20.063a.407.407,0,0,0-.406.406v1.625a.407.407,0,0,0,.406.406Zm4.875.813a1.216,1.216,0,0,1-1.219-1.219V9.75a1.216,1.216,0,0,1,1.219-1.219h1.625A1.216,1.216,0,0,1,29.406,9.75v1.625a1.216,1.216,0,0,1-1.219,1.219ZM28.594,9.75a.407.407,0,0,0-.406-.406H26.563a.407.407,0,0,0-.406.406v1.625a.407.407,0,0,0,.406.406h1.625a.407.407,0,0,0,.406-.406ZM19.25,26A3.251,3.251,0,0,1,16,22.75V8.125a3.251,3.251,0,0,1,3.25-3.25H22.5V3.25A3.251,3.251,0,0,1,25.75,0h8.125a3.251,3.251,0,0,1,3.25,3.25v6.5h3.25A3.253,3.253,0,0,1,43.625,13v9.75A3.253,3.253,0,0,1,40.375,26ZM23.313,5.688H19.25a2.438,2.438,0,0,0-2.437,2.438V22.75a2.438,2.438,0,0,0,2.438,2.438h8.125v-3.25a2.438,2.438,0,0,1,4.875,0v3.25h8.125a2.438,2.438,0,0,0,2.438-2.437V13a2.438,2.438,0,0,0-2.437-2.437H36.313V3.25A2.438,2.438,0,0,0,33.875.813H25.75A2.438,2.438,0,0,0,23.313,3.25Zm6.5,14.625a1.623,1.623,0,0,0-1.625,1.625v3.25h3.25v-3.25A1.623,1.623,0,0,0,29.813,20.313Z" transform="translate(-16)" fill="#af423e"/>
</svg>
