<svg xmlns="http://www.w3.org/2000/svg" width="26" height="26" viewBox="0 0 26 26">
  <path id="arrows-maximize" d="M25.071,40.821V33.585L13.656,45,25.071,56.416V49.179a.464.464,0,1,1,.928,0v8.357a.464.464,0,0,1-.464.464H17.178a.464.464,0,0,1,0-.929h7.237L13,45.656,1.585,57.071H8.821a.464.464,0,0,1,0,.929H.464A.465.465,0,0,1,0,57.536V49.179a.464.464,0,1,1,.928,0v7.237L12.344,45,.876,33.585v7.236a.423.423,0,0,1-.412.464A.465.465,0,0,1,0,40.821V32.464A.464.464,0,0,1,.464,32H8.821a.464.464,0,1,1,0,.929H1.585L13,44.344,24.416,32.929H17.179a.464.464,0,1,1,0-.929h8.357a.465.465,0,0,1,.464.464v8.357a.464.464,0,1,1-.929,0Z" transform="translate(0 -32)" fill="#af423e"/>
</svg>
