<svg xmlns="http://www.w3.org/2000/svg" width="14" height="16" viewBox="0 0 14 16">
  <path id="bus-simple" d="M2.25,11a.75.75,0,1,1,.75.75A.749.749,0,0,1,2.25,11Zm9.5,0a.75.75,0,1,1-.75-.75A.748.748,0,0,1,11.75,11Zm2.006-8.806a1.282,1.282,0,0,1,.244.78V12a2,2,0,0,1-1,1.731V15.5a.5.5,0,0,1-1,0V14H2v1.5a.5.5,0,0,1-1,0V13.731A1.994,1.994,0,0,1,0,12V2.973a1.24,1.24,0,0,1,.259-.79C1.016,1.252,3.131,0,7,0c4.144,0,6.038,1.248,6.756,2.194ZM1,2.973V3H13V2.973a.318.318,0,0,0-.041-.176C12.5,2.191,10.962,1,7,1,3.316,1,1.539,2.194,1.036,2.814A.259.259,0,0,0,1,2.973ZM1,4V8H13V4ZM13,9H1v3a1,1,0,0,0,1,1H12a1,1,0,0,0,1-1Z" fill="#f5f5ff"/>
</svg>
