<svg xmlns="http://www.w3.org/2000/svg" width="26" height="26" viewBox="0 0 26 26">
  <path id="circle-dollar" d="M12.975,4.875a.407.407,0,0,1,.406.406V7.069A7.672,7.672,0,0,1,14.4,7.15a10.833,10.833,0,0,1,1.442.345c.142.041.284.081.421.117a.407.407,0,0,1,.284.5A.44.44,0,0,1,16,8.4a2.221,2.221,0,0,1-.376-.168c-.447-.081-.894-.213-1.346-.279a5.763,5.763,0,0,0-3.067.325A2.013,2.013,0,0,0,9.791,9.755,1.608,1.608,0,0,0,10.6,11.5a10.728,10.728,0,0,0,2.681,1l.234.066a9.284,9.284,0,0,1,2.773,1.112,2.593,2.593,0,0,1,1.127,2.707,2.8,2.8,0,0,1-1.838,2.1,5.832,5.832,0,0,1-2.194.371v1.864a.406.406,0,0,1-.812,0V18.809c-.132-.015-.269-.03-.406-.051h-.005a16.913,16.913,0,0,1-1.782-.467q-.579-.175-1.158-.366a.406.406,0,1,1,.254-.772c.335.127.762.244,1.1.361a16.6,16.6,0,0,0,1.711.442,6.527,6.527,0,0,0,2.991-.223,2.01,2.01,0,0,0,1.346-1.5,1.854,1.854,0,0,0-.792-1.889,8.286,8.286,0,0,0-2.488-.99c-.117-.03-.234-.061-.345-.1a11.029,11.029,0,0,1-2.834-1.077A2.43,2.43,0,0,1,8.993,9.608a2.962,2.962,0,0,1,1.894-2.077A5.915,5.915,0,0,1,12.568,7.1V5.236a.44.44,0,0,1,.406-.406ZM26,13A13,13,0,1,1,13,0,13,13,0,0,1,26,13ZM13,.813A12.188,12.188,0,1,0,25.188,13,12.191,12.191,0,0,0,13,.813Z" fill="#af423e"/>
</svg>
