<svg xmlns="http://www.w3.org/2000/svg" width="26" height="26" viewBox="0 0 26 26">
  <path id="circle-sort" d="M17.052,14.625h-8.1a1.225,1.225,0,0,0-.871,2.088l4.067,4.063a1.253,1.253,0,0,0,.856.349,1.266,1.266,0,0,0,.869-.357l4.054-4.056a1.224,1.224,0,0,0-.871-2.087Zm.3,1.513L13.3,20.188a.435.435,0,0,1-.59.006L8.648,16.138a.4.4,0,0,1-.081-.447.393.393,0,0,1,.381-.254h8.11a.4.4,0,0,1,.381.254A.412.412,0,0,1,17.352,16.138ZM13.863,5.225a1.265,1.265,0,0,0-1.727.006L8.074,9.288a1.225,1.225,0,0,0,.873,2.087h8.11a1.225,1.225,0,0,0,.87-2.087Zm3.57,5.083a.393.393,0,0,1-.381.254h-8.1a.412.412,0,0,1-.3-.7l4.054-4.05A.42.42,0,0,1,13,5.688a.439.439,0,0,1,.3.119L17.35,9.863A.393.393,0,0,1,17.433,10.309ZM13,0A13,13,0,1,0,26,13,13,13,0,0,0,13,0Zm0,25.188A12.188,12.188,0,1,1,25.188,13,12.2,12.2,0,0,1,13,25.188Z" fill="#af423e"/>
</svg>
