<svg xmlns="http://www.w3.org/2000/svg" width="29.25" height="26" viewBox="0 0 29.25 26">
  <path id="door-closed" d="M28.844,25.188H24.375V2.844A2.846,2.846,0,0,0,21.531,0H7.719A2.846,2.846,0,0,0,4.875,2.844V25.188H.406a.406.406,0,0,0,0,.813H28.844a.406.406,0,0,0,0-.812Zm-5.281,0H5.688V2.844A2.033,2.033,0,0,1,7.719.813H21.531a2.033,2.033,0,0,1,2.031,2.031ZM19.5,10.969A2.031,2.031,0,1,0,21.531,13,2.033,2.033,0,0,0,19.5,10.969Zm0,3.25A1.219,1.219,0,1,1,20.719,13,1.221,1.221,0,0,1,19.5,14.219Z" fill="#af423e"/>
</svg>
