<svg xmlns="http://www.w3.org/2000/svg" width="19" height="12.35" viewBox="0 0 19 12.35">
  <path id="dumbbell" d="M18.525,53.7H18.05V51.325A1.425,1.425,0,0,0,16.625,49.9h-.95a1.539,1.539,0,0,0-.475.085v-.56A1.425,1.425,0,0,0,13.775,48h-.95A1.425,1.425,0,0,0,11.4,49.425V53.7H7.6V49.425A1.425,1.425,0,0,0,6.175,48h-.95A1.425,1.425,0,0,0,3.8,49.425v.561a1.418,1.418,0,0,0-.475-.085h-.95A1.425,1.425,0,0,0,.95,51.325V53.7H.475a.475.475,0,0,0,0,.95H.95v2.375A1.425,1.425,0,0,0,2.375,58.45h.95a1.539,1.539,0,0,0,.475-.085v.56A1.425,1.425,0,0,0,5.225,60.35h.95A1.425,1.425,0,0,0,7.6,58.925V54.65h3.8v4.275a1.425,1.425,0,0,0,1.425,1.425h.95A1.425,1.425,0,0,0,15.2,58.925v-.561a1.418,1.418,0,0,0,.475.086h.95a1.425,1.425,0,0,0,1.425-1.425V54.65h.475a.475.475,0,1,0,0-.95ZM3.8,57.025a.478.478,0,0,1-.475.475h-.95a.477.477,0,0,1-.475-.475v-5.7a.478.478,0,0,1,.475-.475h.95a.478.478,0,0,1,.475.475Zm2.85,1.9a.478.478,0,0,1-.475.475h-.95a.478.478,0,0,1-.475-.475v-9.5a.478.478,0,0,1,.475-.475h.95a.477.477,0,0,1,.475.475Zm7.6,0a.478.478,0,0,1-.475.475h-.95a.478.478,0,0,1-.475-.475v-9.5a.478.478,0,0,1,.475-.475h.95a.477.477,0,0,1,.475.475Zm2.85-1.9a.478.478,0,0,1-.475.475h-.95a.478.478,0,0,1-.475-.475v-5.7a.478.478,0,0,1,.475-.475h.95a.478.478,0,0,1,.475.475Z" transform="translate(0 -48)" fill="#f5f5ff"/>
</svg>
