<svg xmlns="http://www.w3.org/2000/svg" width="18.007" height="16" viewBox="0 0 18.007 16">
  <path id="fork-knife" d="M11.212,5.086a.585.585,0,0,1-.031-.194c.006-.066.022-.131.022-.191.056-.059.094-.113.144-.156L15.06,1.187a.5.5,0,0,1,.707.036.655.655,0,0,1,.128.361.439.439,0,0,1-.191.346l-3.686,3.36a.5.5,0,0,1-.166.1.512.512,0,0,1-.194.028.5.5,0,0,1-.191-.047.483.483,0,0,1-.156-.119.471.471,0,0,1-.1-.166ZM5.065,10.351a.2.2,0,0,1-.166-.084l-3.2-3.3A5.775,5.775,0,0,1,.474.607,1,1,0,0,1,2.1.294L8.457,6.759a.475.475,0,0,1,0,.669.538.538,0,0,1-.172.116.521.521,0,0,1-.4,0c-.066-.028-.15-.066-.172-.116L1.391,1A4.753,4.753,0,0,0,2.408,6.255L5.622,9.572a.471.471,0,0,1,.131.256.5.5,0,0,1-.031.288.509.509,0,0,1-.184.222.552.552,0,0,1-.306.081.264.264,0,0,1-.166-.069ZM12.759,6.7a1.64,1.64,0,0,1-.116-.156.5.5,0,0,1-.047-.191.512.512,0,0,1,.028-.194.5.5,0,0,1,.1-.166l3.361-3.713a.478.478,0,0,1,.159-.116.489.489,0,0,1,.188-.048.506.506,0,0,1,.194.028.246.246,0,0,1,.141.1.344.344,0,0,1,.144.157.5.5,0,0,1,.047.189c0,.066-.034.132-.028.194a.5.5,0,0,1-.1.168L13.469,6.668a.522.522,0,0,1-.156.116.5.5,0,0,1-.191.047.488.488,0,0,1-.191-.028,1.3,1.3,0,0,1-.2-.1ZM17.8,3.383a.5.5,0,0,1,.2.322.533.533,0,0,1-.084.372L15.313,7.7a2.57,2.57,0,0,1-.891.875,2.47,2.47,0,0,1-1.132.41c-.1.009-.2.016-.3.016a2.944,2.944,0,0,1-2.048-.835l-.194-.194L2.867,15.856A.508.508,0,0,1,2.515,16a.648.648,0,0,1-.349-.147.5.5,0,0,1-.147-.35.5.5,0,0,1,.14-.35l7.882-7.881-.191-.191a2.611,2.611,0,0,1-.669-1.085,2.9,2.9,0,0,1-.15-1.266A3.1,3.1,0,0,1,9.42,3.558a3.159,3.159,0,0,1,.913-.868l3.6-2.6a.471.471,0,0,1,.372-.087.507.507,0,0,1,.328.2.525.525,0,0,1,.088.373.658.658,0,0,1-.2.325l-3.626,2.61a1.716,1.716,0,0,0-.594.556,1.745,1.745,0,0,0-.278.763,1.9,1.9,0,0,0,.1.825,1.936,1.936,0,0,0,.435.71l.522.522.028.019a.174.174,0,0,1,.016.025l.525.525a2.351,2.351,0,0,0,.71.438,1.912,1.912,0,0,0,.828.091,1.829,1.829,0,0,0,.75-.269,1.728,1.728,0,0,0,.55-.575L17.108,3.5a.482.482,0,0,1,.144-.131.445.445,0,0,1,.181-.069.464.464,0,0,1,.2.006.261.261,0,0,1,.178.081Zm-.941,11.77a.5.5,0,0,1,.141.325.462.462,0,0,1-.175.378.441.441,0,0,1-.322.144.5.5,0,0,1-.353-.138l-5.5-5.5a.5.5,0,0,1-.138-.353.505.505,0,0,1,.144-.35.419.419,0,0,1,.35-.147.515.515,0,0,1,.353.141Z" transform="translate(-0.007)" fill="#f5f5ff"/>
</svg>
