<svg xmlns="http://www.w3.org/2000/svg" width="18.321" height="16" viewBox="0 0 18.321 16">
  <path id="heart-pulse" d="M48.779,33.592a5.358,5.358,0,0,0-7.618,0,5.351,5.351,0,0,0-7.613,0,5.144,5.144,0,0,0-.516,6.769.545.545,0,0,0,.459.195H37.5l1.1-2.537,2.036,4.523a.573.573,0,0,0,1.034.021L43.452,39l.792,1.583h4.584a.572.572,0,0,0,.459-.224,5.151,5.151,0,0,0-.508-6.772Zm-.225,5.819h-3.6l-.991-1.947a.57.57,0,0,0-1.02,0L41.189,40.97,39.11,36.344a.575.575,0,0,0-1.052.011L36.77,39.411h-3a4.056,4.056,0,0,1,.653-5.106,4.185,4.185,0,0,1,2.935-1.189c1.212,0,1.951.224,3.8,2.048,1.968-1.937,2.667-2.048,3.8-2.048A4.166,4.166,0,0,1,47.9,34.3,4.058,4.058,0,0,1,48.554,39.411ZM46.686,41.7a.577.577,0,0,0-.413.174l-4.656,4.813a.575.575,0,0,1-.805,0L36.065,41.9a.611.611,0,0,0-.408-.2.572.572,0,0,0-.408.973l4.763,4.831a1.717,1.717,0,0,0,2.411,0L47.1,42.671A.575.575,0,0,0,46.686,41.7Z" transform="translate(-32 -32)" fill="#f5f5ff"/>
</svg>
