<svg xmlns="http://www.w3.org/2000/svg" width="20" height="16" viewBox="0 0 20 16">
  <path id="school" d="M3,6.972a1.017,1.017,0,0,1,1-1H5a1.017,1.017,0,0,1,1,1v1a.981.981,0,0,1-1,1H4a.981.981,0,0,1-1-1Zm2,0H4v1H5Zm11-1a1.017,1.017,0,0,1,1,1v1a.981.981,0,0,1-1,1H15a.981.981,0,0,1-1-1v-1a1.017,1.017,0,0,1,1-1Zm-1,2h1v-1H15ZM3,11A1.023,1.023,0,0,1,4,9.972H5A1.023,1.023,0,0,1,6,11v2a1,1,0,0,1-1,1H4a1,1,0,0,1-1-1Zm2,0H4v2H5ZM16,9.972A1.023,1.023,0,0,1,17,11v2a1,1,0,0,1-1,1H15a1,1,0,0,1-1-1V11a1.023,1.023,0,0,1,1-1.028ZM15,13h1V11H15ZM10.5,5.472h.25a.521.521,0,0,1,.5.5.484.484,0,0,1-.5.5H10a.484.484,0,0,1-.5-.5v-1a.5.5,0,1,1,1,0Zm-3.5.5a3,3,0,1,1,3,3A2.983,2.983,0,0,1,7,5.972Zm3,2a1.984,1.984,0,0,0,2-2,2,2,0,1,0-4,0A1.984,1.984,0,0,0,10,7.972Zm4.713-4.438,3.681.734A2,2,0,0,1,20,6.231V14a2,2,0,0,1-2,2H2a2,2,0,0,1-2-2V6.231A2,2,0,0,1,1.608,4.269l3.68-.734L9.694.106a.5.5,0,0,1,.612,0ZM12,12v3h6a1,1,0,0,0,1-1V6.231a1.032,1.032,0,0,0-.8-1.009L14.4,4.491a.461.461,0,0,1-.209-.1L10,1.134,5.806,4.394a.461.461,0,0,1-.209.1L1.8,5.222A1.031,1.031,0,0,0,1,6.231V14a1,1,0,0,0,1,1H8V12a2,2,0,1,1,4,0Zm-1,3V12a1,1,0,0,0-2,0v3Z" transform="translate(0 0)" fill="#f5f5ff"/>
</svg>
