<svg xmlns="http://www.w3.org/2000/svg" width="20" height="16" viewBox="0 0 20 16">
  <path id="shop" d="M0,5.806a1.213,1.213,0,0,1,.146-.575L2.574.782A1.5,1.5,0,0,1,3.891,0H16.109a1.5,1.5,0,0,1,1.316.782l2.428,4.449A1.195,1.195,0,0,1,18.806,7H18v8.5a.5.5,0,0,1-1,0V7H3v4h8V8.5a.5.5,0,0,1,1,0v6A1.5,1.5,0,0,1,10.5,16h-7A1.5,1.5,0,0,1,2,14.5V7H1.2A1.194,1.194,0,0,1,0,5.806ZM18.806,6A.2.2,0,0,0,19,5.806a.191.191,0,0,0-.025-.094L16.55,1.261A.5.5,0,0,0,16.109,1H3.891a.5.5,0,0,0-.441.261L1.024,5.713A.19.19,0,0,0,1,5.806.2.2,0,0,0,1.2,6ZM3.5,15h7a.5.5,0,0,0,.5-.5V12H3v2.5a.5.5,0,0,0,.5.5Z" fill="#f5f5ff"/>
</svg>
